<svg version="1.1" id="Layer_1" xmlns="http://www.w3.org/2000/svg" xmlns:xlink="http://www.w3.org/1999/xlink" x="0px" y="0px"
	 width="100%" viewBox="0 0 976 977" enable-background="new 0 0 976 977" xml:space="preserve">
<path fill="#000000" opacity="1.000000" stroke="none" 
	d="
M529.000000,978.000000 
	C352.666656,978.000000 176.833328,978.000000 1.000000,978.000000 
	C1.000000,652.333313 1.000000,326.666656 1.000000,1.000000 
	C326.333344,1.000000 651.666687,1.000000 977.000000,1.000000 
	C977.000000,326.666656 977.000000,652.333313 977.000000,978.000000 
	C827.833313,978.000000 678.666687,978.000000 529.000000,978.000000 
M548.953247,99.955566 
	C548.953247,99.955566 548.926697,99.883278 548.230835,99.982216 
	C547.111694,101.305649 545.992615,102.629082 544.226868,104.000008 
	C543.445740,104.651192 542.664673,105.302376 541.267822,106.272438 
	C539.793274,109.161827 538.318726,112.051216 536.401245,115.076813 
	C536.117310,115.257362 535.966248,115.515633 535.458435,116.057213 
	C535.356079,116.364662 535.253723,116.672112 535.009827,117.667549 
	C534.658142,118.734589 534.306458,119.801628 533.455444,121.054825 
	C533.351013,121.362625 533.246582,121.670425 533.003540,122.628960 
	C532.961975,123.069878 532.920349,123.510803 532.318176,124.199776 
	C532.177917,124.787544 532.037659,125.375313 531.342651,126.212662 
	C531.186157,126.792549 531.029602,127.372437 530.244324,128.283234 
	C529.425049,132.150650 527.392578,135.462570 525.732544,138.989731 
	C522.235474,146.420334 519.545532,154.234222 516.602783,161.920822 
	C515.238953,165.483292 514.294250,169.221512 512.740540,172.692520 
	C510.348785,178.035828 507.325531,183.104156 505.064484,188.496384 
	C502.149475,195.448166 499.883209,202.670425 497.024475,209.647934 
	C495.301361,213.853714 492.983490,217.815796 490.261505,222.244537 
	C489.992981,223.171707 489.823303,224.142044 489.440155,225.019135 
	C486.671509,231.357162 483.766968,237.637253 481.082001,244.010086 
	C476.339020,255.267715 471.769531,266.598419 467.034698,277.859528 
	C463.783325,285.592468 460.329712,293.240173 457.049347,300.961151 
	C453.538635,309.224152 450.125519,317.528595 446.669037,325.814667 
	C444.834381,330.212799 442.998230,334.610352 440.846680,339.638824 
	C436.778137,345.356995 432.768616,351.118469 428.619415,356.777527 
	C426.033966,360.303802 423.237396,363.675262 420.558929,367.150421 
	C420.558929,367.150421 420.523804,367.121185 419.955383,367.554413 
	C395.417023,389.805237 363.810883,398.898285 334.290161,413.283386 
	C325.183014,417.485779 316.075897,421.688141 306.464783,426.000824 
	C306.303131,426.059509 306.141510,426.118225 305.274445,426.279938 
	C297.654938,429.862701 289.935852,433.250854 282.445129,437.085175 
	C275.519409,440.630310 268.344147,444.005554 262.214172,448.681824 
	C257.738037,452.096405 254.780182,457.501251 250.815186,462.704895 
	C244.378296,476.177643 244.827988,489.817291 250.254517,503.385712 
	C251.518280,506.545593 254.022736,509.209259 256.232178,512.724976 
	C257.476379,513.853760 258.720612,514.982544 260.082214,516.578247 
	C260.267151,516.879639 260.536407,517.031799 260.998901,517.762329 
	C261.567047,518.501892 261.978760,519.534241 262.728119,519.934509 
	C268.530640,523.034180 274.341614,526.128784 280.258484,529.001343 
	C290.692902,534.067078 301.140625,539.114624 311.701447,543.908203 
	C322.101379,548.628784 332.680786,552.952148 343.122284,557.583252 
	C353.800171,562.319153 364.488220,567.045959 375.019012,572.095398 
	C384.271423,576.531921 393.316650,581.401001 402.443359,586.098511 
	C404.300507,587.054443 406.112671,588.097839 407.968323,589.032288 
	C407.968323,589.032288 407.900757,589.058105 408.205505,589.686401 
	C416.457245,597.829163 424.708984,605.971985 433.001801,614.837158 
	C442.940826,629.782227 448.885803,646.677124 456.279236,662.852356 
	C462.036896,675.448792 467.156281,688.336670 472.578064,701.087036 
	C476.687408,710.750977 480.897675,720.372559 484.935211,730.066284 
	C490.941833,744.487732 496.808990,758.967224 502.787872,773.400330 
	C506.135010,781.480469 509.559998,789.528809 513.000488,797.569824 
	C516.551086,805.868286 520.183838,814.131531 523.741760,822.426880 
	C526.843994,829.659546 530.417542,836.745911 532.824585,844.206116 
	C535.545044,852.637390 539.859253,860.038330 545.876526,866.201721 
	C552.212158,872.691284 560.337769,876.675659 569.452637,877.684814 
	C581.207336,878.986084 592.742065,878.166626 603.065979,871.469727 
	C613.015625,865.015442 618.929810,855.699829 623.194153,844.726440 
	C629.689941,828.011292 637.061523,811.636475 644.719666,794.756287 
	C647.414978,790.270569 646.365967,784.541443 649.847961,780.163757 
	C651.189514,778.476990 650.164673,774.718262 651.598816,773.327026 
	C658.682678,766.455750 659.794739,756.758850 663.869507,748.517395 
	C668.335815,739.484192 671.363831,729.748901 675.239807,720.411377 
	C677.806152,714.228821 680.912781,708.270935 683.496216,702.094788 
	C685.627197,697.000305 687.114258,691.633240 689.304199,686.567383 
	C692.028137,680.266174 695.181458,674.150513 698.672180,667.702087 
	C698.727600,667.138672 698.783020,666.575256 699.144226,665.332275 
	C701.442505,659.593811 703.740784,653.855286 706.525208,647.911743 
	C706.640076,647.605591 706.754944,647.299377 707.315491,646.425964 
	C708.245178,644.041016 709.174805,641.656067 710.689880,638.837708 
	C716.277405,625.723572 724.235107,614.093933 733.715210,602.766785 
	C744.140991,592.434082 755.718018,583.693237 769.114380,577.557861 
	C776.603577,574.127991 784.239258,571.019104 791.752441,567.640076 
	C803.305786,562.444153 814.817932,557.156616 826.334045,551.878418 
	C846.230042,542.759521 866.205322,533.805847 885.955200,524.380310 
	C892.542908,521.236389 898.565125,516.885620 902.752258,509.769989 
	C910.312744,499.392090 911.135254,487.424500 909.691345,475.432892 
	C908.530884,465.795074 904.250549,457.216156 896.898682,450.311401 
	C887.931580,441.889587 876.168335,438.701569 865.691040,433.152100 
	C857.462585,428.793732 848.601074,425.630676 839.643188,421.307892 
	C834.765869,419.254059 829.888550,417.200256 824.335632,414.834686 
	C819.892822,412.885620 815.432739,410.974945 811.010742,408.979767 
	C800.673340,404.315704 790.354248,399.611084 779.665955,394.295349 
	C774.444580,391.901642 769.223145,389.507935 763.266479,387.005310 
	C759.792480,384.786499 756.269287,382.640625 752.854065,380.334747 
	C743.667175,374.132019 734.589355,367.943970 727.950439,358.633270 
	C722.058838,350.370575 716.198425,342.226685 712.265808,332.770142 
	C708.182617,322.951477 703.686218,313.302032 699.248779,303.634491 
	C696.996765,298.728149 694.292664,294.025024 692.136169,289.080353 
	C690.432129,285.173035 689.251953,281.037262 687.975586,276.270081 
	C685.599670,271.175323 683.223816,266.080566 680.904297,260.451813 
	C680.618713,260.250916 680.333130,260.050018 680.017334,259.148895 
	C679.624695,258.098663 679.232056,257.048401 678.968140,255.259079 
	C677.926086,252.840195 676.884033,250.421310 675.976379,247.260284 
	C671.319336,236.664215 666.558838,226.112183 662.029541,215.461761 
	C655.195312,199.391052 648.494385,183.263351 641.789368,167.137970 
	C635.763855,152.646606 630.033386,138.027267 623.722107,123.662346 
	C620.868042,117.166275 617.651550,110.573715 613.294556,105.055252 
	C607.190735,97.324295 598.579102,92.799057 588.918457,90.383904 
	C576.927795,87.386208 565.687439,89.217522 554.449707,95.091316 
	C554.247192,95.377243 554.044678,95.663170 553.399536,96.002853 
	C553.399536,96.002853 552.985779,96.168839 552.467285,96.132530 
	C552.273438,96.409599 552.079529,96.686661 551.431030,97.010437 
	C551.431030,97.010437 550.997131,97.153954 550.345947,97.185425 
	C549.857788,98.099533 549.369629,99.013634 548.953247,99.955566 
M106.220284,732.689453 
	C111.134926,743.208618 116.269836,753.631836 120.902176,764.273865 
	C125.524086,774.891907 129.642120,785.729370 133.981628,796.470337 
	C136.324783,802.270203 138.541031,808.125488 141.043716,813.855652 
	C144.580612,821.953674 147.804001,830.253296 152.106888,837.937317 
	C159.150131,850.514893 179.029755,849.861206 185.053345,837.560547 
	C188.653229,830.209351 191.815628,822.637207 194.998703,815.090149 
	C200.126343,802.932617 205.093811,790.707703 210.156433,778.522705 
	C215.103607,766.615417 219.942291,754.659668 225.132172,742.858704 
	C226.859756,738.930481 229.211853,735.171875 231.842178,731.771851 
	C235.280380,727.327637 239.278351,723.316406 243.772339,718.991699 
	C245.425735,717.889648 246.968903,716.547485 248.752274,715.728516 
	C255.272369,712.734558 261.897217,709.969604 268.435883,707.014954 
	C275.671661,703.745300 283.028168,700.682251 290.010315,696.930420 
	C295.936493,693.746094 301.404785,689.709534 307.720398,685.723816 
	C308.176331,684.677612 308.554016,683.588562 309.100311,682.591858 
	C314.934967,671.946655 311.233276,661.192810 302.066803,654.762695 
	C297.767120,651.746460 292.747284,649.725220 287.969421,647.428589 
	C275.188507,641.284973 262.511627,634.891296 249.510239,629.249634 
	C237.197159,623.906677 230.289871,613.913879 225.113968,602.481934 
	C219.877121,590.915405 215.518600,578.954163 210.614517,567.233093 
	C206.196182,556.673035 201.561539,546.203369 197.019669,535.695007 
	C193.034012,526.473450 189.111053,517.224060 185.041183,508.039795 
	C179.264679,495.004364 158.637787,494.976410 152.525421,507.036530 
	C149.608871,512.791138 147.195679,518.807495 144.689606,524.762146 
	C137.939178,540.801758 131.290268,556.884033 124.543518,572.925171 
	C120.742416,581.962708 116.678535,590.892090 112.997147,599.977173 
	C106.715332,615.479614 96.677917,627.100281 80.648804,633.157471 
	C74.185730,635.599792 68.004929,638.804993 61.748943,641.775269 
	C54.012402,645.448303 46.490471,649.623352 38.589439,652.888489 
	C26.255199,657.985779 22.144083,672.182373 28.019323,682.751221 
	C29.848793,684.888977 31.267651,687.789612 33.578339,689.033264 
	C43.913723,694.595886 54.466427,699.761658 65.014877,704.918884 
	C71.419731,708.050354 78.036530,710.750732 84.420578,713.921631 
	C93.064758,718.215332 100.885010,723.605530 106.220284,732.689453 
M216.918167,332.710022 
	C217.574966,338.049225 221.719788,340.302307 225.838165,342.269623 
	C232.186966,345.302429 241.903488,342.264313 244.901352,336.071869 
	C249.514038,326.543854 253.637543,316.779358 257.989044,307.124390 
	C264.188904,293.368195 270.681610,279.735687 276.528687,265.831451 
	C280.997742,255.204147 289.305542,249.257523 299.309845,244.949493 
	C309.953949,240.365967 320.725830,236.062576 331.232117,231.184967 
	C334.806885,229.525345 339.096802,227.177994 340.725525,223.962494 
	C346.119965,213.312317 341.824799,204.558060 331.161377,200.016891 
	C317.933838,194.383743 304.652435,188.854858 291.618500,182.798355 
	C284.637787,179.554626 279.599396,174.124191 276.795593,166.603073 
	C274.069672,159.291000 270.738373,152.199875 267.556580,145.063583 
	C262.415802,133.533600 257.229828,122.023087 251.961884,110.550774 
	C249.476044,105.137207 247.378815,99.394707 244.001495,94.574821 
	C238.359329,86.522667 223.609390,86.328819 218.406204,95.535774 
	C213.289642,104.589447 209.383362,114.334236 205.070801,123.832413 
	C202.555054,129.373199 200.356461,135.057312 197.884064,140.618652 
	C195.007614,147.088837 191.398270,153.298203 189.166306,159.974884 
	C185.686081,170.385651 179.628754,178.529419 169.947342,183.390244 
	C159.998230,188.385498 149.568893,192.416580 139.426468,197.038010 
	C134.764130,199.162445 130.226746,201.583344 125.736946,204.058838 
	C119.438972,207.531235 118.009995,219.761246 123.389801,224.663528 
	C126.906021,227.867645 131.393036,230.174179 135.742874,232.262878 
	C146.805756,237.575027 158.044983,242.519073 169.195755,247.649292 
	C176.207993,250.875504 181.614487,255.881210 184.965164,262.845612 
	C189.989410,273.288452 194.851318,283.810333 199.700378,294.336304 
	C202.859512,301.193848 205.877106,308.116669 208.951248,315.013306 
	C211.481033,320.688660 214.000717,326.368561 216.918167,332.710022 
z"/>
<path fill="#7FA2D5" opacity="1.000000" stroke="none" 
	d="
M706.039001,648.116821 
	C703.740784,653.855286 701.442505,659.593811 698.828003,665.884888 
	C698.390991,666.943298 698.270142,667.448975 698.149292,667.954712 
	C695.181458,674.150513 692.028137,680.266174 689.304199,686.567383 
	C687.114258,691.633240 685.627197,697.000305 683.496216,702.094788 
	C680.912781,708.270935 677.806152,714.228821 675.239807,720.411377 
	C671.363831,729.748901 668.335815,739.484192 663.869507,748.517395 
	C659.794739,756.758850 658.682678,766.455750 651.598816,773.327026 
	C650.164673,774.718262 651.189514,778.476990 649.847961,780.163757 
	C646.365967,784.541443 647.414978,790.270569 644.367554,794.566589 
	C643.611877,793.369751 643.208252,792.362549 642.511414,790.623779 
	C641.222717,792.989807 640.490784,794.333496 638.984497,797.098938 
	C636.252563,786.938110 625.396912,786.155396 621.729614,777.653015 
	C620.319824,774.384338 615.217773,772.906860 612.677673,769.875977 
	C609.618286,766.225525 607.479736,761.854187 603.217773,759.199158 
	C601.014893,757.826904 597.742065,756.276489 597.314697,754.296631 
	C595.903809,747.760193 589.887207,746.898743 585.964355,743.483521 
	C584.237671,741.980286 583.378662,739.507324 582.012268,737.554016 
	C581.076050,736.215820 580.168579,734.672668 578.859436,733.813171 
	C573.955017,730.593384 568.002563,728.546631 566.956116,721.500793 
	C566.816284,720.559326 565.303528,719.747681 564.317627,719.024414 
	C563.024109,718.075378 561.492188,717.424072 560.289429,716.382996 
	C554.629456,711.484131 551.230347,703.977051 543.209900,701.747925 
	C542.344360,701.507385 541.490601,700.188049 541.170532,699.195312 
	C539.514038,694.056580 536.682190,690.279297 531.351135,688.260742 
	C529.691833,687.632385 528.785156,685.008179 527.542175,683.291687 
	C526.982605,682.518921 526.501282,681.681946 525.885071,680.958801 
	C521.845398,676.217651 514.530212,674.517578 513.167664,667.242004 
	C513.079956,666.773621 512.160583,666.459290 511.625702,666.076660 
	C506.747955,662.586548 501.060883,659.867371 499.561279,653.182617 
	C499.438995,652.637451 498.742310,651.885132 498.230316,651.813110 
	C488.053741,650.380859 486.214996,639.497314 478.794952,634.683716 
	C473.185974,631.044739 468.931061,625.305969 464.115356,620.460205 
	C458.700653,615.011780 454.749237,607.970276 447.086548,604.962891 
	C446.398621,604.692871 445.745850,603.895630 445.429565,603.185974 
	C443.012848,597.763184 439.834686,593.193176 433.876099,591.056824 
	C432.713226,590.639954 431.993652,588.937134 431.113342,587.793762 
	C429.890686,586.205750 428.899536,584.387329 427.471954,583.019653 
	C424.181549,579.867371 419.827789,577.446411 417.578217,573.719116 
	C416.074585,571.227722 414.879242,569.224243 412.328827,567.797974 
	C407.907440,565.325317 402.732300,563.440735 402.672943,556.896301 
	C402.666199,556.154907 400.791534,555.394775 399.742798,554.704529 
	C395.006287,551.586975 389.113647,549.695801 388.036469,542.828796 
	C387.867889,541.754272 386.222198,540.851013 385.159546,539.992310 
	C383.789062,538.884766 382.272675,537.958191 380.897888,536.855469 
	C375.309021,532.372437 372.313324,524.866638 364.511322,522.898865 
	C363.601105,522.669312 362.556702,521.474609 362.269867,520.518738 
	C360.656799,515.142334 357.837891,511.030731 352.164551,509.291016 
	C350.964020,508.922913 349.069214,507.798309 349.068787,507.021423 
	C349.065765,501.475769 343.918365,500.084503 341.082214,496.987457 
	C338.619202,494.297852 334.473297,493.118835 334.347382,488.510406 
	C334.335388,488.071625 333.476776,487.548004 332.912994,487.249054 
	C327.410706,484.331360 322.936707,480.476746 320.586914,474.477722 
	C320.300934,473.747711 319.085449,473.352814 318.262848,472.866669 
	C313.065430,469.794800 306.943756,467.662537 305.978363,460.380127 
	C305.884796,459.674164 305.227661,458.632355 304.630768,458.465088 
	C295.443207,455.890747 293.250488,445.540466 285.549652,441.317963 
	C285.075989,441.058258 285.162598,439.776855 285.236542,438.731873 
	C291.102997,435.770721 296.792938,433.182068 302.293488,430.239349 
	C303.812103,429.426971 304.766571,427.559998 305.979889,426.176910 
	C306.141510,426.118225 306.303131,426.059509 306.998230,426.165527 
	C308.491028,426.430695 309.614990,426.908600 310.384186,426.573059 
	C317.973846,423.262573 325.536987,419.885162 333.011475,416.324738 
	C333.956665,415.874512 334.348907,414.263428 334.997345,413.190186 
	C363.810883,398.898285 395.417023,389.805237 420.278137,367.727783 
	C419.494598,369.428802 418.629242,371.236542 417.238159,372.432983 
	C412.501099,376.507294 412.119141,378.360413 416.436829,382.901703 
	C425.850433,392.802734 434.499084,403.523010 446.075714,411.172180 
	C446.853668,411.686157 447.329132,412.661377 447.937286,413.428436 
	C450.269867,416.370605 452.405334,419.499420 454.979950,422.211487 
	C458.042145,425.437103 462.083069,427.869934 464.643036,431.410461 
	C472.319305,442.026947 483.786224,448.648590 492.129425,458.698883 
	C499.995789,468.174805 509.960815,475.906830 518.973450,484.436829 
	C519.552979,484.985352 519.802673,485.868500 520.340210,486.477417 
	C523.814209,490.413330 527.182800,494.456573 530.858154,498.197205 
	C536.419861,503.857727 542.354858,509.154572 547.855103,514.871643 
	C554.821960,522.113098 561.221802,529.918091 568.402832,536.930420 
	C575.669556,544.026428 585.727356,548.180847 590.538330,557.905823 
	C590.606689,558.043884 590.787964,558.122925 590.905518,558.240479 
	C604.031372,571.356140 617.836609,583.775635 630.269775,597.608582 
	C637.006897,605.104126 644.881287,611.574097 651.662415,619.034241 
	C657.463135,625.415710 664.906067,629.832031 670.232239,636.957397 
	C676.227600,644.978210 684.151245,651.572388 691.348511,658.673279 
	C694.421448,661.705078 697.923523,660.865417 699.742554,656.906250 
	C702.099060,651.777527 704.328369,646.585876 706.860168,641.545776 
	C707.382202,640.506531 708.994629,640.015076 710.104431,639.271118 
	C709.174805,641.656067 708.245178,644.041016 706.926086,646.875244 
	C706.328247,647.561890 706.162354,647.825989 706.039001,648.116821 
z"/>
<path fill="#7E9AD6" opacity="1.000000" stroke="none" 
	d="
M710.397156,639.054443 
	C708.994629,640.015076 707.382202,640.506531 706.860168,641.545776 
	C704.328369,646.585876 702.099060,651.777527 699.742554,656.906250 
	C697.923523,660.865417 694.421448,661.705078 691.348511,658.673279 
	C684.151245,651.572388 676.227600,644.978210 670.232239,636.957397 
	C664.906067,629.832031 657.463135,625.415710 651.662415,619.034241 
	C644.881287,611.574097 637.006897,605.104126 630.269775,597.608582 
	C617.836609,583.775635 604.031372,571.356140 590.905518,558.240479 
	C590.787964,558.122925 590.606689,558.043884 590.538330,557.905823 
	C585.727356,548.180847 575.669556,544.026428 568.402832,536.930420 
	C561.221802,529.918091 554.821960,522.113098 547.855103,514.871643 
	C542.354858,509.154572 536.419861,503.857727 530.858154,498.197205 
	C527.182800,494.456573 523.814209,490.413330 520.340210,486.477417 
	C519.802673,485.868500 519.552979,484.985352 518.973450,484.436829 
	C509.960815,475.906830 499.995789,468.174805 492.129425,458.698883 
	C483.786224,448.648590 472.319305,442.026947 464.643036,431.410461 
	C462.083069,427.869934 458.042145,425.437103 454.979950,422.211487 
	C452.405334,419.499420 450.269867,416.370605 447.937286,413.428436 
	C447.329132,412.661377 446.853668,411.686157 446.075714,411.172180 
	C434.499084,403.523010 425.850433,392.802734 416.436829,382.901703 
	C412.119141,378.360413 412.501099,376.507294 417.238159,372.432983 
	C418.629242,371.236542 419.494598,369.428802 420.562347,367.511169 
	C420.523804,367.121185 420.558929,367.150421 420.884979,367.250305 
	C421.696686,367.309814 422.432739,367.461090 422.631561,367.201263 
	C428.428894,359.625519 434.261444,352.072906 439.842346,344.339050 
	C440.836243,342.961700 440.750183,340.805023 441.162781,339.008179 
	C442.998230,334.610352 444.834381,330.212799 446.669037,325.814667 
	C450.125519,317.528595 453.538635,309.224152 457.049347,300.961151 
	C460.329712,293.240173 463.783325,285.592468 467.034698,277.859528 
	C471.769531,266.598419 476.339020,255.267715 481.082001,244.010086 
	C483.766968,237.637253 486.671509,231.357162 489.440155,225.019135 
	C489.823303,224.142044 489.992981,223.171707 490.750549,222.410217 
	C490.430084,226.535156 489.284302,230.462250 488.901398,234.462372 
	C488.479950,238.865280 487.616394,243.787674 489.132141,247.618561 
	C490.158936,250.213608 495.010406,251.233673 498.048126,253.123901 
	C499.332581,253.923203 501.423187,255.275253 501.318359,256.159027 
	C500.635162,261.917145 504.564148,263.267273 508.580048,265.356354 
	C511.647766,266.952148 516.294312,267.691254 515.703186,273.368652 
	C515.553650,274.804962 518.371887,277.641449 520.176636,277.982819 
	C525.322632,278.956238 526.676514,282.391174 528.472839,286.570404 
	C529.564697,289.110596 533.004395,291.746674 535.738464,292.190765 
	C539.014587,292.722870 540.226013,293.689850 541.115967,296.676666 
	C542.566162,301.543854 544.533813,306.075317 550.997803,306.217743 
	C552.318420,306.246826 554.463013,308.392944 554.730896,309.840210 
	C555.879700,316.047760 559.075867,319.467590 565.485229,320.351318 
	C567.054749,320.567688 569.252197,322.859711 569.547241,324.489563 
	C570.573425,330.158936 573.682617,333.571869 579.539001,335.191620 
	C581.002197,335.596252 582.202942,337.638733 583.110718,339.173157 
	C584.061768,340.780670 584.019348,343.284027 585.289185,344.330658 
	C587.940369,346.515961 591.023743,348.358307 594.209229,349.654144 
	C596.588989,350.622314 597.123169,351.626495 597.558472,354.171387 
	C597.956177,356.496490 600.292419,359.673950 602.406128,360.282898 
	C607.275879,361.685791 609.638916,364.531738 611.494995,368.960083 
	C612.444824,371.226318 615.302734,374.258118 617.257690,374.228912 
	C622.111389,374.156342 622.802673,376.489868 623.092407,380.286407 
	C623.363464,383.837524 628.104187,388.806610 631.390198,388.354309 
	C636.071350,387.709961 636.649658,390.103363 637.129150,393.672882 
	C637.667603,397.680756 642.812439,403.082001 645.755066,402.713043 
	C650.685425,402.094910 652.153809,404.106506 651.431946,408.717468 
	C651.288391,409.634613 651.941650,411.160522 652.709595,411.651489 
	C655.822937,413.641907 659.170837,415.261597 662.334045,417.179810 
	C663.637146,417.970062 665.669983,419.136688 665.704468,420.186859 
	C665.958435,427.921356 671.141296,430.412994 677.386536,432.265106 
	C678.636658,432.635895 680.456909,434.532074 680.332336,435.510803 
	C679.693298,440.530640 682.978760,442.145996 686.538025,443.935974 
	C689.858948,445.606079 693.615112,446.572815 694.006470,451.755341 
	C694.158081,453.763336 697.462463,456.614807 699.776245,457.148041 
	C704.300781,458.190826 705.339905,461.325470 707.239319,464.701294 
	C708.811279,467.495026 711.937561,470.492065 714.877686,471.148468 
	C718.104248,471.868866 719.248718,472.870422 720.134521,475.790863 
	C721.612732,480.664307 723.673950,485.097321 730.112732,485.255371 
	C731.422180,485.287506 733.409851,487.795227 733.804504,489.464447 
	C735.105652,494.967621 737.953491,497.803467 743.471985,499.173737 
	C745.352600,499.640686 747.969299,501.428741 748.315369,503.030945 
	C749.646179,509.192535 752.538452,512.750305 758.586853,514.050171 
	C761.035767,514.576477 763.023865,515.160583 762.104126,518.633362 
	C761.768188,519.901672 762.763245,522.164185 763.882019,523.048645 
	C766.592285,525.191284 769.595032,527.097046 772.744690,528.506592 
	C775.039246,529.533386 776.357117,530.087402 776.581238,533.205261 
	C776.740417,535.418335 779.299500,538.679626 781.413940,539.285278 
	C786.292664,540.682617 788.686218,543.524170 790.479004,547.978760 
	C791.365601,550.181580 794.113098,553.370972 795.740662,553.214966 
	C800.637634,552.745300 801.802673,555.589294 802.797852,559.298462 
	C789.865112,565.517517 777.051392,571.281372 764.430176,577.439575 
	C752.736755,583.145142 742.486633,590.968445 733.372253,600.240479 
	C732.863037,600.758423 733.179138,602.087769 733.111084,603.039429 
	C724.235107,614.093933 716.277405,625.723572 710.397156,639.054443 
z"/>
<path fill="#7D93D7" opacity="1.000000" stroke="none" 
	d="
M803.000916,559.015137 
	C801.802673,555.589294 800.637634,552.745300 795.740662,553.214966 
	C794.113098,553.370972 791.365601,550.181580 790.479004,547.978760 
	C788.686218,543.524170 786.292664,540.682617 781.413940,539.285278 
	C779.299500,538.679626 776.740417,535.418335 776.581238,533.205261 
	C776.357117,530.087402 775.039246,529.533386 772.744690,528.506592 
	C769.595032,527.097046 766.592285,525.191284 763.882019,523.048645 
	C762.763245,522.164185 761.768188,519.901672 762.104126,518.633362 
	C763.023865,515.160583 761.035767,514.576477 758.586853,514.050171 
	C752.538452,512.750305 749.646179,509.192535 748.315369,503.030945 
	C747.969299,501.428741 745.352600,499.640686 743.471985,499.173737 
	C737.953491,497.803467 735.105652,494.967621 733.804504,489.464447 
	C733.409851,487.795227 731.422180,485.287506 730.112732,485.255371 
	C723.673950,485.097321 721.612732,480.664307 720.134521,475.790863 
	C719.248718,472.870422 718.104248,471.868866 714.877686,471.148468 
	C711.937561,470.492065 708.811279,467.495026 707.239319,464.701294 
	C705.339905,461.325470 704.300781,458.190826 699.776245,457.148041 
	C697.462463,456.614807 694.158081,453.763336 694.006470,451.755341 
	C693.615112,446.572815 689.858948,445.606079 686.538025,443.935974 
	C682.978760,442.145996 679.693298,440.530640 680.332336,435.510803 
	C680.456909,434.532074 678.636658,432.635895 677.386536,432.265106 
	C671.141296,430.412994 665.958435,427.921356 665.704468,420.186859 
	C665.669983,419.136688 663.637146,417.970062 662.334045,417.179810 
	C659.170837,415.261597 655.822937,413.641907 652.709595,411.651489 
	C651.941650,411.160522 651.288391,409.634613 651.431946,408.717468 
	C652.153809,404.106506 650.685425,402.094910 645.755066,402.713043 
	C642.812439,403.082001 637.667603,397.680756 637.129150,393.672882 
	C636.649658,390.103363 636.071350,387.709961 631.390198,388.354309 
	C628.104187,388.806610 623.363464,383.837524 623.092407,380.286407 
	C622.802673,376.489868 622.111389,374.156342 617.257690,374.228912 
	C615.302734,374.258118 612.444824,371.226318 611.494995,368.960083 
	C609.638916,364.531738 607.275879,361.685791 602.406128,360.282898 
	C600.292419,359.673950 597.956177,356.496490 597.558472,354.171387 
	C597.123169,351.626495 596.588989,350.622314 594.209229,349.654144 
	C591.023743,348.358307 587.940369,346.515961 585.289185,344.330658 
	C584.019348,343.284027 584.061768,340.780670 583.110718,339.173157 
	C582.202942,337.638733 581.002197,335.596252 579.539001,335.191620 
	C573.682617,333.571869 570.573425,330.158936 569.547241,324.489563 
	C569.252197,322.859711 567.054749,320.567688 565.485229,320.351318 
	C559.075867,319.467590 555.879700,316.047760 554.730896,309.840210 
	C554.463013,308.392944 552.318420,306.246826 550.997803,306.217743 
	C544.533813,306.075317 542.566162,301.543854 541.115967,296.676666 
	C540.226013,293.689850 539.014587,292.722870 535.738464,292.190765 
	C533.004395,291.746674 529.564697,289.110596 528.472839,286.570404 
	C526.676514,282.391174 525.322632,278.956238 520.176636,277.982819 
	C518.371887,277.641449 515.553650,274.804962 515.703186,273.368652 
	C516.294312,267.691254 511.647766,266.952148 508.580048,265.356354 
	C504.564148,263.267273 500.635162,261.917145 501.318359,256.159027 
	C501.423187,255.275253 499.332581,253.923203 498.048126,253.123901 
	C495.010406,251.233673 490.158936,250.213608 489.132141,247.618561 
	C487.616394,243.787674 488.479950,238.865280 488.901398,234.462372 
	C489.284302,230.462250 490.430084,226.535156 491.086243,222.231644 
	C492.983490,217.815796 495.301361,213.853714 497.024475,209.647934 
	C499.883209,202.670425 502.149475,195.448166 505.064484,188.496384 
	C507.325531,183.104156 510.348785,178.035828 512.740540,172.692520 
	C514.294250,169.221512 515.238953,165.483292 516.602783,161.920822 
	C519.545532,154.234222 522.235474,146.420334 525.732544,138.989731 
	C527.392578,135.462570 529.425049,132.150650 530.885803,128.221375 
	C534.134094,131.339523 536.500183,134.760941 539.397156,137.649948 
	C545.689758,143.925247 552.393555,149.788879 558.668823,156.080597 
	C565.649536,163.079605 572.253906,170.452759 579.183411,177.504471 
	C585.690491,184.126312 592.456116,190.493317 599.020386,197.059967 
	C606.512207,204.554474 613.824280,212.229767 621.369934,219.668854 
	C627.625183,225.835770 634.195312,231.682861 640.463989,237.836655 
	C648.006714,245.241180 655.464355,252.737259 662.790283,260.355865 
	C666.990295,264.723663 670.687988,269.578217 674.935364,273.895264 
	C677.453918,276.455078 680.461243,278.647675 683.590210,280.393616 
	C684.189270,280.727905 686.381775,278.206757 687.839111,277.002960 
	C689.251953,281.037262 690.432129,285.173035 692.136169,289.080353 
	C694.292664,294.025024 696.996765,298.728149 699.248779,303.634491 
	C703.686218,313.302032 708.182617,322.951477 712.265808,332.770142 
	C716.198425,342.226685 722.058838,350.370575 727.950439,358.633270 
	C734.589355,367.943970 743.667175,374.132019 752.854065,380.334747 
	C756.269287,382.640625 759.792480,384.786499 763.662720,387.409790 
	C766.943115,392.129822 775.911743,396.122284 780.027771,394.922882 
	C790.354248,399.611084 800.673340,404.315704 811.010742,408.979767 
	C815.432739,410.974945 819.892822,412.885620 824.705811,415.340454 
	C829.661865,418.355011 834.241821,420.875244 838.869446,423.304840 
	C838.982605,423.364227 839.625122,422.415283 840.020752,421.936646 
	C848.601074,425.630676 857.462585,428.793732 865.691040,433.152100 
	C876.168335,438.701569 887.931580,441.889587 896.898682,450.311401 
	C904.250549,457.216156 908.530884,465.795074 909.691345,475.432892 
	C911.135254,487.424500 910.312744,499.392090 902.070984,509.927582 
	C900.316650,510.786713 899.210876,511.443329 898.176086,512.197266 
	C892.846863,516.080139 887.957886,520.840515 882.136780,523.721985 
	C866.662292,531.381775 850.835266,538.339600 835.057495,545.372559 
	C824.452087,550.099915 813.691895,554.479797 803.000916,559.015137 
z"/>
<path fill="#82B1D3" opacity="1.000000" stroke="none" 
	d="
M243.035507,719.118958 
	C239.278351,723.316406 235.280380,727.327637 231.842178,731.771851 
	C229.211853,735.171875 226.859756,738.930481 225.132172,742.858704 
	C219.942291,754.659668 215.103607,766.615417 210.156433,778.522705 
	C205.093811,790.707703 200.126343,802.932617 194.998703,815.090149 
	C191.815628,822.637207 188.653229,830.209351 185.053345,837.560547 
	C179.029755,849.861206 159.150131,850.514893 152.106888,837.937317 
	C147.804001,830.253296 144.580612,821.953674 141.043716,813.855652 
	C138.541031,808.125488 136.324783,802.270203 133.981628,796.470337 
	C129.642120,785.729370 125.524086,774.891907 120.902176,764.273865 
	C116.269836,753.631836 111.134926,743.208618 106.464615,732.225159 
	C105.984558,729.854919 105.666275,727.633423 104.470253,726.093872 
	C96.371193,715.668396 84.225288,711.375916 72.946373,705.863953 
	C62.053272,700.540527 50.868397,695.808594 40.031956,690.377319 
	C35.686138,688.199158 31.928446,684.847595 27.903080,682.030029 
	C22.144083,672.182373 26.255199,657.985779 38.589439,652.888489 
	C46.490471,649.623352 54.012402,645.448303 61.748943,641.775269 
	C68.004929,638.804993 74.185730,635.599792 80.648804,633.157471 
	C96.677917,627.100281 106.715332,615.479614 112.997147,599.977173 
	C116.678535,590.892090 120.742416,581.962708 124.543518,572.925171 
	C131.290268,556.884033 137.939178,540.801758 144.689606,524.762146 
	C147.195679,518.807495 149.608871,512.791138 152.525421,507.036530 
	C158.637787,494.976410 179.264679,495.004364 185.041183,508.039795 
	C189.111053,517.224060 193.034012,526.473450 197.019669,535.695007 
	C201.561539,546.203369 206.196182,556.673035 210.614517,567.233093 
	C215.518600,578.954163 219.877121,590.915405 225.113968,602.481934 
	C230.289871,613.913879 237.197159,623.906677 249.510239,629.249634 
	C262.511627,634.891296 275.188507,641.284973 287.969421,647.428589 
	C292.747284,649.725220 297.767120,651.746460 302.066803,654.762695 
	C311.233276,661.192810 314.934967,671.946655 309.100311,682.591858 
	C308.554016,683.588562 308.176331,684.677612 307.013245,685.882080 
	C303.669342,687.295410 301.035187,688.555908 298.395416,689.804626 
	C281.911621,697.601807 265.376801,705.294617 248.997421,713.305298 
	C246.628891,714.463623 245.004349,717.143311 243.035507,719.118958 
z"/>
<path fill="#80A7D5" opacity="1.000000" stroke="none" 
	d="
M284.988556,438.970795 
	C285.162598,439.776855 285.075989,441.058258 285.549652,441.317963 
	C293.250488,445.540466 295.443207,455.890747 304.630768,458.465088 
	C305.227661,458.632355 305.884796,459.674164 305.978363,460.380127 
	C306.943756,467.662537 313.065430,469.794800 318.262848,472.866669 
	C319.085449,473.352814 320.300934,473.747711 320.586914,474.477722 
	C322.936707,480.476746 327.410706,484.331360 332.912994,487.249054 
	C333.476776,487.548004 334.335388,488.071625 334.347382,488.510406 
	C334.473297,493.118835 338.619202,494.297852 341.082214,496.987457 
	C343.918365,500.084503 349.065765,501.475769 349.068787,507.021423 
	C349.069214,507.798309 350.964020,508.922913 352.164551,509.291016 
	C357.837891,511.030731 360.656799,515.142334 362.269867,520.518738 
	C362.556702,521.474609 363.601105,522.669312 364.511322,522.898865 
	C372.313324,524.866638 375.309021,532.372437 380.897888,536.855469 
	C382.272675,537.958191 383.789062,538.884766 385.159546,539.992310 
	C386.222198,540.851013 387.867889,541.754272 388.036469,542.828796 
	C389.113647,549.695801 395.006287,551.586975 399.742798,554.704529 
	C400.791534,555.394775 402.666199,556.154907 402.672943,556.896301 
	C402.732300,563.440735 407.907440,565.325317 412.328827,567.797974 
	C414.879242,569.224243 416.074585,571.227722 417.578217,573.719116 
	C419.827789,577.446411 424.181549,579.867371 427.471954,583.019653 
	C428.899536,584.387329 429.890686,586.205750 431.113342,587.793762 
	C431.993652,588.937134 432.713226,590.639954 433.876099,591.056824 
	C439.834686,593.193176 443.012848,597.763184 445.429565,603.185974 
	C445.745850,603.895630 446.398621,604.692871 447.086548,604.962891 
	C454.749237,607.970276 458.700653,615.011780 464.115356,620.460205 
	C468.931061,625.305969 473.185974,631.044739 478.794952,634.683716 
	C486.214996,639.497314 488.053741,650.380859 498.230316,651.813110 
	C498.742310,651.885132 499.438995,652.637451 499.561279,653.182617 
	C501.060883,659.867371 506.747955,662.586548 511.625702,666.076660 
	C512.160583,666.459290 513.079956,666.773621 513.167664,667.242004 
	C514.530212,674.517578 521.845398,676.217651 525.885071,680.958801 
	C526.501282,681.681946 526.982605,682.518921 527.542175,683.291687 
	C528.785156,685.008179 529.691833,687.632385 531.351135,688.260742 
	C536.682190,690.279297 539.514038,694.056580 541.170532,699.195312 
	C541.490601,700.188049 542.344360,701.507385 543.209900,701.747925 
	C551.230347,703.977051 554.629456,711.484131 560.289429,716.382996 
	C561.492188,717.424072 563.024109,718.075378 564.317627,719.024414 
	C565.303528,719.747681 566.816284,720.559326 566.956116,721.500793 
	C568.002563,728.546631 573.955017,730.593384 578.859436,733.813171 
	C580.168579,734.672668 581.076050,736.215820 582.012268,737.554016 
	C583.378662,739.507324 584.237671,741.980286 585.964355,743.483521 
	C589.887207,746.898743 595.903809,747.760193 597.314697,754.296631 
	C597.742065,756.276489 601.014893,757.826904 603.217773,759.199158 
	C607.479736,761.854187 609.618286,766.225525 612.677673,769.875977 
	C615.217773,772.906860 620.319824,774.384338 621.729614,777.653015 
	C625.396912,786.155396 636.252563,786.938110 638.984497,797.098938 
	C640.490784,794.333496 641.222717,792.989807 642.511414,790.623779 
	C643.208252,792.362549 643.611877,793.369751 644.038330,794.747009 
	C637.061523,811.636475 629.689941,828.011292 623.194153,844.726440 
	C618.929810,855.699829 613.015625,865.015442 603.065979,871.469727 
	C592.742065,878.166626 581.207336,878.986084 569.452637,877.684814 
	C560.337769,876.675659 552.212158,872.691284 545.876526,866.201721 
	C539.859253,860.038330 535.545044,852.637390 532.824585,844.206116 
	C530.417542,836.745911 526.843994,829.659546 523.741760,822.426880 
	C520.183838,814.131531 516.551086,805.868286 513.000488,797.569824 
	C509.559998,789.528809 506.135010,781.480469 502.787872,773.400330 
	C496.808990,758.967224 490.941833,744.487732 484.935211,730.066284 
	C480.897675,720.372559 476.687408,710.750977 472.578064,701.087036 
	C467.156281,688.336670 462.036896,675.448792 456.279236,662.852356 
	C448.885803,646.677124 442.940826,629.782227 432.968658,614.107544 
	C428.679962,607.954773 424.836945,602.124817 420.027832,597.247437 
	C416.670380,593.842346 411.990143,591.741516 407.900757,589.058105 
	C407.900757,589.058105 407.968323,589.032288 407.895264,588.725464 
	C405.468292,586.404724 403.413788,583.762939 400.713562,582.475281 
	C377.002625,571.167969 353.203003,560.045166 329.376465,548.982300 
	C309.172089,539.601196 288.890594,530.386230 268.661530,521.058044 
	C266.015259,519.837769 263.477814,518.381592 260.889984,517.034668 
	C260.536407,517.031799 260.267151,516.879639 259.968842,516.012085 
	C258.555756,514.331055 257.256042,513.216125 255.956329,512.101257 
	C254.022736,509.209259 251.518280,506.545593 250.254517,503.385712 
	C244.827988,489.817291 244.378296,476.177643 251.164856,462.521729 
	C252.564117,461.727051 254.055283,461.377197 254.596313,460.464294 
	C261.540253,448.747345 272.407959,442.666931 284.988556,438.970795 
z"/>
<path fill="#7F9FD6" opacity="1.000000" stroke="none" 
	d="
M216.721527,332.378235 
	C214.000717,326.368561 211.481033,320.688660 208.951248,315.013306 
	C205.877106,308.116669 202.859512,301.193848 199.700378,294.336304 
	C194.851318,283.810333 189.989410,273.288452 184.965164,262.845612 
	C181.614487,255.881210 176.207993,250.875504 169.195755,247.649292 
	C158.044983,242.519073 146.805756,237.575027 135.742874,232.262878 
	C131.393036,230.174179 126.906021,227.867645 123.389801,224.663528 
	C118.009995,219.761246 119.438972,207.531235 125.736946,204.058838 
	C130.226746,201.583344 134.764130,199.162445 139.426468,197.038010 
	C149.568893,192.416580 159.998230,188.385498 169.947342,183.390244 
	C179.628754,178.529419 185.686081,170.385651 189.166306,159.974884 
	C191.398270,153.298203 195.007614,147.088837 197.884064,140.618652 
	C200.356461,135.057312 202.555054,129.373199 205.070801,123.832413 
	C209.383362,114.334236 213.289642,104.589447 218.406204,95.535774 
	C223.609390,86.328819 238.359329,86.522667 244.001495,94.574821 
	C247.378815,99.394707 249.476044,105.137207 251.961884,110.550774 
	C257.229828,122.023087 262.415802,133.533600 267.556580,145.063583 
	C270.738373,152.199875 274.069672,159.291000 276.795593,166.603073 
	C279.599396,174.124191 284.637787,179.554626 291.618500,182.798355 
	C304.652435,188.854858 317.933838,194.383743 331.161377,200.016891 
	C341.824799,204.558060 346.119965,213.312317 340.725525,223.962494 
	C339.096802,227.177994 334.806885,229.525345 331.232117,231.184967 
	C320.725830,236.062576 309.953949,240.365967 299.309845,244.949493 
	C289.305542,249.257523 280.997742,255.204147 276.528687,265.831451 
	C270.681610,279.735687 264.188904,293.368195 257.989044,307.124390 
	C253.637543,316.779358 249.514038,326.543854 244.901352,336.071869 
	C241.903488,342.264313 232.186966,345.302429 225.838165,342.269623 
	C221.719788,340.302307 217.574966,338.049225 216.721527,332.378235 
z"/>
<path fill="#7C8FD8" opacity="1.000000" stroke="none" 
	d="
M687.907349,276.636536 
	C686.381775,278.206757 684.189270,280.727905 683.590210,280.393616 
	C680.461243,278.647675 677.453918,276.455078 674.935364,273.895264 
	C670.687988,269.578217 666.990295,264.723663 662.790283,260.355865 
	C655.464355,252.737259 648.006714,245.241180 640.463989,237.836655 
	C634.195312,231.682861 627.625183,225.835770 621.369934,219.668854 
	C613.824280,212.229767 606.512207,204.554474 599.020386,197.059967 
	C592.456116,190.493317 585.690491,184.126312 579.183411,177.504471 
	C572.253906,170.452759 565.649536,163.079605 558.668823,156.080597 
	C552.393555,149.788879 545.689758,143.925247 539.397156,137.649948 
	C536.500183,134.760941 534.134094,131.339523 531.200195,128.055908 
	C531.029602,127.372437 531.186157,126.792549 531.874756,126.030853 
	C532.564148,125.216599 532.721436,124.584152 532.878784,123.951714 
	C532.920349,123.510803 532.961975,123.069878 533.233032,122.137711 
	C533.659668,121.408188 533.823792,121.148918 533.954773,120.868660 
	C534.306458,119.801628 534.658142,118.734589 535.238647,117.154305 
	C535.661438,116.398415 535.821594,116.135269 535.948120,115.851624 
	C535.966248,115.515633 536.117310,115.257362 536.956055,114.925949 
	C539.911560,112.302094 543.583496,110.459244 541.883606,105.953568 
	C542.664673,105.302376 543.445740,104.651192 544.893860,103.917030 
	C546.682800,102.517128 547.804749,101.200203 548.926697,99.883278 
	C548.926697,99.883278 548.953247,99.955566 549.229309,99.860901 
	C550.002625,98.895470 550.499878,98.024712 550.997131,97.153954 
	C550.997131,97.153954 551.431030,97.010437 551.858032,96.878212 
	C552.544617,96.585129 552.778198,96.392746 552.985779,96.168839 
	C552.985779,96.168839 553.399536,96.002853 553.828552,95.867271 
	C554.527527,95.569908 554.770203,95.374237 554.985535,95.144676 
	C565.687439,89.217522 576.927795,87.386208 588.918457,90.383904 
	C598.579102,92.799057 607.190735,97.324295 613.294556,105.055252 
	C617.651550,110.573715 620.868042,117.166275 623.722107,123.662346 
	C630.033386,138.027267 635.763855,152.646606 641.789368,167.137970 
	C648.494385,183.263351 655.195312,199.391052 662.029541,215.461761 
	C666.558838,226.112183 671.319336,236.664215 675.639038,247.744415 
	C676.480957,250.818420 677.660217,253.408279 678.839478,255.998138 
	C679.232056,257.048401 679.624695,258.098663 680.141052,259.705200 
	C680.425903,260.529724 680.620300,260.771149 680.847961,260.985809 
	C683.223816,266.080566 685.599670,271.175323 687.907349,276.636536 
z"/>
<path fill="#84A0E4" opacity="1.000000" stroke="none" 
	d="
M802.797852,559.298462 
	C813.691895,554.479797 824.452087,550.099915 835.057495,545.372559 
	C850.835266,538.339600 866.662292,531.381775 882.136780,523.721985 
	C887.957886,520.840515 892.846863,516.080139 898.176086,512.197266 
	C899.210876,511.443329 900.316650,510.786713 901.746582,510.058655 
	C898.565125,516.885620 892.542908,521.236389 885.955200,524.380310 
	C866.205322,533.805847 846.230042,542.759521 826.334045,551.878418 
	C814.817932,557.156616 803.305786,562.444153 791.752441,567.640076 
	C784.239258,571.019104 776.603577,574.127991 769.114380,577.557861 
	C755.718018,583.693237 744.140991,592.434082 733.413147,602.903076 
	C733.179138,602.087769 732.863037,600.758423 733.372253,600.240479 
	C742.486633,590.968445 752.736755,583.145142 764.430176,577.439575 
	C777.051392,571.281372 789.865112,565.517517 802.797852,559.298462 
z"/>
<path fill="#8EB4E4" opacity="1.000000" stroke="none" 
	d="
M260.944458,517.398499 
	C263.477814,518.381592 266.015259,519.837769 268.661530,521.058044 
	C288.890594,530.386230 309.172089,539.601196 329.376465,548.982300 
	C353.203003,560.045166 377.002625,571.167969 400.713562,582.475281 
	C403.413788,583.762939 405.468292,586.404724 407.883881,588.759766 
	C406.112671,588.097839 404.300507,587.054443 402.443359,586.098511 
	C393.316650,581.401001 384.271423,576.531921 375.019012,572.095398 
	C364.488220,567.045959 353.800171,562.319153 343.122284,557.583252 
	C332.680786,552.952148 322.101379,548.628784 311.701447,543.908203 
	C301.140625,539.114624 290.692902,534.067078 280.258484,529.001343 
	C274.341614,526.128784 268.530640,523.034180 262.728119,519.934509 
	C261.978760,519.534241 261.567047,518.501892 260.944458,517.398499 
z"/>
<path fill="#8EC0DF" opacity="1.000000" stroke="none" 
	d="
M27.961197,682.390625 
	C31.928446,684.847595 35.686138,688.199158 40.031956,690.377319 
	C50.868397,695.808594 62.053272,700.540527 72.946373,705.863953 
	C84.225288,711.375916 96.371193,715.668396 104.470253,726.093872 
	C105.666275,727.633423 105.984558,729.854919 106.443527,731.872925 
	C100.885010,723.605530 93.064758,718.215332 84.420578,713.921631 
	C78.036530,710.750732 71.419731,708.050354 65.014877,704.918884 
	C54.466427,699.761658 43.913723,694.595886 33.578339,689.033264 
	C31.267651,687.789612 29.848793,684.888977 27.961197,682.390625 
z"/>
<path fill="#8EB4E4" opacity="1.000000" stroke="none" 
	d="
M243.403931,719.055298 
	C245.004349,717.143311 246.628891,714.463623 248.997421,713.305298 
	C265.376801,705.294617 281.911621,697.601807 298.395416,689.804626 
	C301.035187,688.555908 303.669342,687.295410 306.690857,686.045166 
	C301.404785,689.709534 295.936493,693.746094 290.010315,696.930420 
	C283.028168,700.682251 275.671661,703.745300 268.435883,707.014954 
	C261.897217,709.969604 255.272369,712.734558 248.752274,715.728516 
	C246.968903,716.547485 245.425735,717.889648 243.403931,719.055298 
z"/>
<path fill="#8EB4E4" opacity="1.000000" stroke="none" 
	d="
M285.236542,438.731873 
	C272.407959,442.666931 261.540253,448.747345 254.596313,460.464294 
	C254.055283,461.377197 252.564117,461.727051 251.330048,462.178772 
	C254.780182,457.501251 257.738037,452.096405 262.214172,448.681824 
	C268.344147,444.005554 275.519409,440.630310 282.445129,437.085175 
	C289.935852,433.250854 297.654938,429.862701 305.627167,426.228424 
	C304.766571,427.559998 303.812103,429.426971 302.293488,430.239349 
	C296.792938,433.182068 291.102997,435.770721 285.236542,438.731873 
z"/>
<path fill="#7FA2D5" opacity="1.000000" stroke="none" 
	d="
M441.004730,339.323486 
	C440.750183,340.805023 440.836243,342.961700 439.842346,344.339050 
	C434.261444,352.072906 428.428894,359.625519 422.631561,367.201263 
	C422.432739,367.461090 421.696686,367.309814 420.873291,367.233154 
	C423.237396,363.675262 426.033966,360.303802 428.619415,356.777527 
	C432.768616,351.118469 436.778137,345.356995 441.004730,339.323486 
z"/>
<path fill="#8EB4E4" opacity="1.000000" stroke="none" 
	d="
M408.053131,589.372253 
	C411.990143,591.741516 416.670380,593.842346 420.027832,597.247437 
	C424.836945,602.124817 428.679962,607.954773 432.948120,613.746338 
	C424.708984,605.971985 416.457245,597.829163 408.053131,589.372253 
z"/>
<path fill="#8EB4E4" opacity="1.000000" stroke="none" 
	d="
M334.643738,413.236786 
	C334.348907,414.263428 333.956665,415.874512 333.011475,416.324738 
	C325.536987,419.885162 317.973846,423.262573 310.384186,426.573059 
	C309.614990,426.908600 308.491028,426.430695 307.250214,426.110382 
	C316.075897,421.688141 325.183014,417.485779 334.643738,413.236786 
z"/>
<path fill="#84A0E4" opacity="1.000000" stroke="none" 
	d="
M779.846863,394.609131 
	C775.911743,396.122284 766.943115,392.129822 764.030334,387.464233 
	C769.223145,389.507935 774.444580,391.901642 779.846863,394.609131 
z"/>
<path fill="#84A0E4" opacity="1.000000" stroke="none" 
	d="
M839.832031,421.622253 
	C839.625122,422.415283 838.982605,423.364227 838.869446,423.304840 
	C834.241821,420.875244 829.661865,418.355011 825.043579,415.496338 
	C829.888550,417.200256 834.765869,419.254059 839.832031,421.622253 
z"/>
<path fill="#7D93D7" opacity="1.000000" stroke="none" 
	d="
M541.575684,106.113007 
	C543.583496,110.459244 539.911560,112.302094 537.177490,114.857849 
	C538.318726,112.051216 539.793274,109.161827 541.575684,106.113007 
z"/>
<path fill="#7D93D7" opacity="1.000000" stroke="none" 
	d="
M678.903809,255.628601 
	C677.660217,253.408279 676.480957,250.818420 675.571899,248.115509 
	C676.884033,250.421310 677.926086,252.840195 678.903809,255.628601 
z"/>
<path fill="#8EB4E4" opacity="1.000000" stroke="none" 
	d="
M256.094238,512.413086 
	C257.256042,513.216125 258.555756,514.331055 259.910156,515.778625 
	C258.720612,514.982544 257.476379,513.853760 256.094238,512.413086 
z"/>
<path fill="#7D93D7" opacity="1.000000" stroke="none" 
	d="
M548.578735,99.932747 
	C547.804749,101.200203 546.682800,102.517128 545.217163,103.893280 
	C545.992615,102.629082 547.111694,101.305649 548.578735,99.932747 
z"/>
<path fill="#7D93D7" opacity="1.000000" stroke="none" 
	d="
M550.671509,97.169693 
	C550.499878,98.024712 550.002625,98.895470 549.193420,99.846985 
	C549.369629,99.013634 549.857788,98.099533 550.671509,97.169693 
z"/>
<path fill="#7D93D7" opacity="1.000000" stroke="none" 
	d="
M532.598450,124.075745 
	C532.721436,124.584152 532.564148,125.216599 532.152161,125.906067 
	C532.037659,125.375313 532.177917,124.787544 532.598450,124.075745 
z"/>
<path fill="#7E9AD6" opacity="1.000000" stroke="none" 
	d="
M698.410767,667.828369 
	C698.270142,667.448975 698.390991,666.943298 698.675171,666.224731 
	C698.783020,666.575256 698.727600,667.138672 698.410767,667.828369 
z"/>
<path fill="#7D93D7" opacity="1.000000" stroke="none" 
	d="
M552.726562,96.150681 
	C552.778198,96.392746 552.544617,96.585129 552.085388,96.854858 
	C552.079529,96.686661 552.273438,96.409599 552.726562,96.150681 
z"/>
<path fill="#7D93D7" opacity="1.000000" stroke="none" 
	d="
M680.876099,260.718811 
	C680.620300,260.771149 680.425903,260.529724 680.156189,260.055328 
	C680.333130,260.050018 680.618713,260.250916 680.876099,260.718811 
z"/>
<path fill="#7D93D7" opacity="1.000000" stroke="none" 
	d="
M554.717651,95.117996 
	C554.770203,95.374237 554.527527,95.569908 554.049866,95.840393 
	C554.044678,95.663170 554.247192,95.377243 554.717651,95.117996 
z"/>
<path fill="#7E9AD6" opacity="1.000000" stroke="none" 
	d="
M706.282104,648.014282 
	C706.162354,647.825989 706.328247,647.561890 706.703247,647.158936 
	C706.754944,647.299377 706.640076,647.605591 706.282104,648.014282 
z"/>
<path fill="#7D93D7" opacity="1.000000" stroke="none" 
	d="
M533.705078,120.961746 
	C533.823792,121.148918 533.659668,121.408188 533.302307,121.812347 
	C533.246582,121.670425 533.351013,121.362625 533.705078,120.961746 
z"/>
<path fill="#7D93D7" opacity="1.000000" stroke="none" 
	d="
M535.703247,115.954422 
	C535.821594,116.135269 535.661438,116.398415 535.309448,116.810303 
	C535.253723,116.672112 535.356079,116.364662 535.703247,115.954422 
z"/>
</svg>