<?xml version="1.0" standalone="no"?>
<!DOCTYPE svg PUBLIC "-//W3C//DTD SVG 20010904//EN"
 "http://www.w3.org/TR/2001/REC-SVG-20010904/DTD/svg10.dtd">
<svg version="1.0" xmlns="http://www.w3.org/2000/svg"
 width="400.000000pt" height="400.000000pt" viewBox="0 0 400.000000 400.000000"
 preserveAspectRatio="xMidYMid meet">

<g transform="translate(0.000000,400.000000) scale(0.100000,-0.100000)"
fill="#000000" stroke="none">
<path d="M0 2000 l0 -2000 2000 0 2000 0 0 2000 0 2000 -2000 0 -2000 0 0
-2000z m1296 1137 c7 -24 32 -81 69 -162 25 -54 60 -85 115 -103 58 -20 100
-50 100 -72 0 -15 -14 -27 -52 -45 -29 -14 -58 -25 -64 -25 -29 0 -90 -71
-113 -131 -14 -35 -31 -73 -38 -84 -7 -11 -13 -27 -13 -35 0 -9 -11 -27 -25
-40 -41 -38 -62 -17 -119 117 -55 128 -70 144 -173 188 -98 43 -95 72 13 121
41 18 83 45 96 59 12 14 43 73 70 132 54 123 69 139 104 117 13 -9 26 -26 30
-37z m1092 16 c23 -17 58 -85 111 -214 7 -19 22 -51 33 -73 10 -21 17 -45 14
-53 -3 -8 -2 -12 2 -9 5 3 17 -18 27 -47 10 -29 25 -62 33 -74 7 -12 11 -27 7
-33 -3 -5 -2 -10 3 -10 5 0 26 -39 47 -87 94 -224 105 -234 380 -357 44 -20
97 -45 117 -56 20 -11 43 -20 51 -20 8 0 24 -9 37 -20 13 -11 26 -20 30 -20 5
0 15 -19 25 -42 25 -63 7 -119 -54 -164 -25 -18 -52 -34 -58 -34 -7 0 -41 -14
-75 -30 -35 -17 -106 -49 -158 -72 -52 -23 -102 -47 -111 -55 -8 -7 -19 -13
-23 -13 -11 0 -66 -57 -66 -68 0 -6 -4 -12 -8 -14 -10 -4 -62 -93 -62 -107 0
-5 -13 -38 -29 -73 -16 -35 -41 -92 -56 -128 -15 -36 -33 -78 -40 -95 -8 -16
-20 -46 -28 -65 -115 -277 -116 -279 -157 -307 -65 -45 -160 -20 -193 52 -28
59 -41 88 -92 210 -25 61 -50 119 -55 130 -20 46 -50 116 -90 210 -23 55 -51
116 -61 135 -23 46 -81 109 -115 126 -71 37 -121 62 -144 72 -14 6 -54 24 -90
40 -240 110 -235 106 -235 199 0 63 1 66 37 97 21 17 118 66 223 111 103 44
191 86 197 93 6 6 15 12 21 12 7 0 29 19 50 43 39 43 81 123 137 257 47 113
51 123 65 155 8 17 24 55 36 85 71 178 135 303 166 323 36 23 114 18 151 -10z
m-1301 -1235 c13 -12 23 -25 23 -30 0 -5 20 -57 45 -116 93 -218 100 -227 214
-272 84 -33 111 -56 111 -93 -1 -38 -18 -52 -105 -86 -33 -13 -67 -30 -76 -37
-8 -8 -19 -14 -24 -14 -22 0 -91 -140 -152 -305 -17 -48 -50 -85 -74 -85 -17
0 -59 44 -59 62 0 5 -12 35 -26 66 -14 31 -29 66 -34 77 -70 171 -79 181 -215
241 -80 35 -106 67 -88 106 11 25 17 29 127 78 97 43 106 54 177 225 90 217
103 233 156 183z"/>
</g>
</svg>
